<mxfile host="app.diagrams.net" modified="2024-01-30T09:54:01.068Z" agent="Mozilla/5.0 (Windows NT 10.0; Win64; x64) AppleWebKit/537.36 (KHTML, like Gecko) Chrome/120.0.0.0 Safari/537.36" etag="PoPBZZ-h8IKD2H4QvN86" version="23.0.2" type="device">
  <diagram name="Page-1" id="UhMw9nbjbPcISy8zsZim">
    <mxGraphModel dx="2511" dy="549" grid="1" gridSize="10" guides="1" tooltips="1" connect="1" arrows="1" fold="1" page="1" pageScale="1" pageWidth="850" pageHeight="1100" math="0" shadow="0">
      <root>
        <mxCell id="0" />
        <mxCell id="1" parent="0" />
        <mxCell id="H4Wsnc-VcdrFRMZcwrRY-18" style="edgeStyle=orthogonalEdgeStyle;rounded=0;orthogonalLoop=1;jettySize=auto;html=1;" edge="1" parent="1" source="H4Wsnc-VcdrFRMZcwrRY-1" target="H4Wsnc-VcdrFRMZcwrRY-2">
          <mxGeometry relative="1" as="geometry" />
        </mxCell>
        <mxCell id="H4Wsnc-VcdrFRMZcwrRY-1" value="start" style="ellipse;whiteSpace=wrap;html=1;" vertex="1" parent="1">
          <mxGeometry x="180" y="83" width="120" height="80" as="geometry" />
        </mxCell>
        <mxCell id="H4Wsnc-VcdrFRMZcwrRY-19" style="edgeStyle=orthogonalEdgeStyle;rounded=0;orthogonalLoop=1;jettySize=auto;html=1;exitX=0.5;exitY=1;exitDx=0;exitDy=0;entryX=0;entryY=0.5;entryDx=0;entryDy=0;" edge="1" parent="1" source="H4Wsnc-VcdrFRMZcwrRY-2" target="H4Wsnc-VcdrFRMZcwrRY-3">
          <mxGeometry relative="1" as="geometry" />
        </mxCell>
        <mxCell id="H4Wsnc-VcdrFRMZcwrRY-2" value="Pelanggan membuka aplikasi pemesanan makanan" style="rounded=1;whiteSpace=wrap;html=1;" vertex="1" parent="1">
          <mxGeometry x="180" y="190" width="120" height="60" as="geometry" />
        </mxCell>
        <mxCell id="H4Wsnc-VcdrFRMZcwrRY-20" style="edgeStyle=orthogonalEdgeStyle;rounded=0;orthogonalLoop=1;jettySize=auto;html=1;exitX=0.5;exitY=0;exitDx=0;exitDy=0;entryX=0;entryY=0.5;entryDx=0;entryDy=0;" edge="1" parent="1" source="H4Wsnc-VcdrFRMZcwrRY-3" target="H4Wsnc-VcdrFRMZcwrRY-4">
          <mxGeometry relative="1" as="geometry" />
        </mxCell>
        <mxCell id="H4Wsnc-VcdrFRMZcwrRY-3" value="Aplikasi menampilkan halaman utama dan daftar menu dan opsi pilihan" style="rounded=1;whiteSpace=wrap;html=1;" vertex="1" parent="1">
          <mxGeometry x="270" y="290" width="120" height="60" as="geometry" />
        </mxCell>
        <mxCell id="H4Wsnc-VcdrFRMZcwrRY-22" style="edgeStyle=orthogonalEdgeStyle;rounded=0;orthogonalLoop=1;jettySize=auto;html=1;exitX=0.5;exitY=1;exitDx=0;exitDy=0;entryX=0;entryY=0.5;entryDx=0;entryDy=0;" edge="1" parent="1" source="H4Wsnc-VcdrFRMZcwrRY-4" target="H4Wsnc-VcdrFRMZcwrRY-5">
          <mxGeometry relative="1" as="geometry" />
        </mxCell>
        <mxCell id="H4Wsnc-VcdrFRMZcwrRY-4" value="Memilih menu yang diinginkan" style="rounded=1;whiteSpace=wrap;html=1;" vertex="1" parent="1">
          <mxGeometry x="380" y="190" width="120" height="60" as="geometry" />
        </mxCell>
        <mxCell id="H4Wsnc-VcdrFRMZcwrRY-23" style="edgeStyle=orthogonalEdgeStyle;rounded=0;orthogonalLoop=1;jettySize=auto;html=1;exitX=0.5;exitY=0;exitDx=0;exitDy=0;entryX=0;entryY=0.5;entryDx=0;entryDy=0;" edge="1" parent="1" source="H4Wsnc-VcdrFRMZcwrRY-5" target="H4Wsnc-VcdrFRMZcwrRY-6">
          <mxGeometry relative="1" as="geometry" />
        </mxCell>
        <mxCell id="H4Wsnc-VcdrFRMZcwrRY-5" value="Menampilkan detail makanan: harga,deskripsi, gambar" style="rounded=1;whiteSpace=wrap;html=1;" vertex="1" parent="1">
          <mxGeometry x="500" y="290" width="120" height="60" as="geometry" />
        </mxCell>
        <mxCell id="H4Wsnc-VcdrFRMZcwrRY-24" style="edgeStyle=orthogonalEdgeStyle;rounded=0;orthogonalLoop=1;jettySize=auto;html=1;exitX=0.5;exitY=1;exitDx=0;exitDy=0;entryX=0;entryY=0.5;entryDx=0;entryDy=0;" edge="1" parent="1" source="H4Wsnc-VcdrFRMZcwrRY-6" target="H4Wsnc-VcdrFRMZcwrRY-7">
          <mxGeometry relative="1" as="geometry" />
        </mxCell>
        <mxCell id="H4Wsnc-VcdrFRMZcwrRY-6" value="Memilih jumlah mmakanan yang ingin dipesan" style="rounded=1;whiteSpace=wrap;html=1;" vertex="1" parent="1">
          <mxGeometry x="610" y="190" width="120" height="60" as="geometry" />
        </mxCell>
        <mxCell id="H4Wsnc-VcdrFRMZcwrRY-26" style="edgeStyle=orthogonalEdgeStyle;rounded=0;orthogonalLoop=1;jettySize=auto;html=1;exitX=1;exitY=0.5;exitDx=0;exitDy=0;entryX=0.5;entryY=0;entryDx=0;entryDy=0;" edge="1" parent="1" source="H4Wsnc-VcdrFRMZcwrRY-7" target="H4Wsnc-VcdrFRMZcwrRY-8">
          <mxGeometry relative="1" as="geometry" />
        </mxCell>
        <mxCell id="H4Wsnc-VcdrFRMZcwrRY-7" value="app menambahkan makanan ke keranjang" style="rounded=1;whiteSpace=wrap;html=1;arcSize=25;" vertex="1" parent="1">
          <mxGeometry x="700" y="290" width="120" height="60" as="geometry" />
        </mxCell>
        <mxCell id="H4Wsnc-VcdrFRMZcwrRY-9" style="edgeStyle=orthogonalEdgeStyle;rounded=0;orthogonalLoop=1;jettySize=auto;html=1;entryX=0.5;entryY=0;entryDx=0;entryDy=0;" edge="1" parent="1" source="H4Wsnc-VcdrFRMZcwrRY-8" target="H4Wsnc-VcdrFRMZcwrRY-4">
          <mxGeometry relative="1" as="geometry" />
        </mxCell>
        <mxCell id="H4Wsnc-VcdrFRMZcwrRY-11" style="edgeStyle=orthogonalEdgeStyle;rounded=0;orthogonalLoop=1;jettySize=auto;html=1;exitX=0.5;exitY=1;exitDx=0;exitDy=0;entryX=0.5;entryY=0;entryDx=0;entryDy=0;" edge="1" parent="1" source="H4Wsnc-VcdrFRMZcwrRY-8" target="H4Wsnc-VcdrFRMZcwrRY-10">
          <mxGeometry relative="1" as="geometry" />
        </mxCell>
        <mxCell id="H4Wsnc-VcdrFRMZcwrRY-8" value="selesaikan pemesanan?" style="rhombus;whiteSpace=wrap;html=1;" vertex="1" parent="1">
          <mxGeometry x="880" y="120" width="100" height="90" as="geometry" />
        </mxCell>
        <mxCell id="H4Wsnc-VcdrFRMZcwrRY-31" style="edgeStyle=orthogonalEdgeStyle;rounded=0;orthogonalLoop=1;jettySize=auto;html=1;exitX=1;exitY=0.5;exitDx=0;exitDy=0;entryX=0;entryY=0.5;entryDx=0;entryDy=0;" edge="1" parent="1" source="H4Wsnc-VcdrFRMZcwrRY-10" target="H4Wsnc-VcdrFRMZcwrRY-12">
          <mxGeometry relative="1" as="geometry" />
        </mxCell>
        <mxCell id="H4Wsnc-VcdrFRMZcwrRY-10" value="Menampilkan ringkasan pemesanan." style="rounded=1;whiteSpace=wrap;html=1;" vertex="1" parent="1">
          <mxGeometry x="870" y="290" width="120" height="60" as="geometry" />
        </mxCell>
        <mxCell id="H4Wsnc-VcdrFRMZcwrRY-32" style="edgeStyle=orthogonalEdgeStyle;rounded=0;orthogonalLoop=1;jettySize=auto;html=1;exitX=0.5;exitY=1;exitDx=0;exitDy=0;entryX=0.5;entryY=0;entryDx=0;entryDy=0;" edge="1" parent="1" source="H4Wsnc-VcdrFRMZcwrRY-12" target="H4Wsnc-VcdrFRMZcwrRY-13">
          <mxGeometry relative="1" as="geometry" />
        </mxCell>
        <mxCell id="H4Wsnc-VcdrFRMZcwrRY-12" value="memilih opsi pembayaran" style="rounded=1;whiteSpace=wrap;html=1;" vertex="1" parent="1">
          <mxGeometry x="1030" y="186" width="120" height="60" as="geometry" />
        </mxCell>
        <mxCell id="H4Wsnc-VcdrFRMZcwrRY-33" style="edgeStyle=orthogonalEdgeStyle;rounded=0;orthogonalLoop=1;jettySize=auto;html=1;exitX=1;exitY=0.5;exitDx=0;exitDy=0;entryX=0;entryY=0.5;entryDx=0;entryDy=0;" edge="1" parent="1" source="H4Wsnc-VcdrFRMZcwrRY-13" target="H4Wsnc-VcdrFRMZcwrRY-14">
          <mxGeometry relative="1" as="geometry" />
        </mxCell>
        <mxCell id="H4Wsnc-VcdrFRMZcwrRY-13" value="Mengarahkan ke halaman pembayaran" style="rounded=1;whiteSpace=wrap;html=1;" vertex="1" parent="1">
          <mxGeometry x="1031" y="290" width="120" height="60" as="geometry" />
        </mxCell>
        <mxCell id="H4Wsnc-VcdrFRMZcwrRY-34" style="edgeStyle=orthogonalEdgeStyle;rounded=0;orthogonalLoop=1;jettySize=auto;html=1;exitX=0.5;exitY=1;exitDx=0;exitDy=0;entryX=0.5;entryY=0;entryDx=0;entryDy=0;" edge="1" parent="1" source="H4Wsnc-VcdrFRMZcwrRY-14" target="H4Wsnc-VcdrFRMZcwrRY-15">
          <mxGeometry relative="1" as="geometry" />
        </mxCell>
        <mxCell id="H4Wsnc-VcdrFRMZcwrRY-14" value="&amp;nbsp;Memasukan informasi pembayaran" style="rounded=1;whiteSpace=wrap;html=1;" vertex="1" parent="1">
          <mxGeometry x="1215" y="189" width="120" height="60" as="geometry" />
        </mxCell>
        <mxCell id="H4Wsnc-VcdrFRMZcwrRY-35" style="edgeStyle=orthogonalEdgeStyle;rounded=0;orthogonalLoop=1;jettySize=auto;html=1;exitX=1;exitY=0.5;exitDx=0;exitDy=0;entryX=0;entryY=0.5;entryDx=0;entryDy=0;" edge="1" parent="1" source="H4Wsnc-VcdrFRMZcwrRY-15" target="H4Wsnc-VcdrFRMZcwrRY-16">
          <mxGeometry relative="1" as="geometry" />
        </mxCell>
        <mxCell id="H4Wsnc-VcdrFRMZcwrRY-15" value="Memproses pembayaran" style="rounded=1;whiteSpace=wrap;html=1;" vertex="1" parent="1">
          <mxGeometry x="1215" y="290" width="120" height="60" as="geometry" />
        </mxCell>
        <mxCell id="H4Wsnc-VcdrFRMZcwrRY-27" value="Ya" style="text;html=1;strokeColor=none;fillColor=none;align=center;verticalAlign=middle;whiteSpace=wrap;rounded=0;" vertex="1" parent="1">
          <mxGeometry x="910" y="240" width="60" height="30" as="geometry" />
        </mxCell>
        <mxCell id="H4Wsnc-VcdrFRMZcwrRY-30" value="Tidak" style="text;html=1;strokeColor=none;fillColor=none;align=center;verticalAlign=middle;whiteSpace=wrap;rounded=0;" vertex="1" parent="1">
          <mxGeometry x="780" y="140" width="60" height="30" as="geometry" />
        </mxCell>
        <mxCell id="H4Wsnc-VcdrFRMZcwrRY-42" value="" style="swimlane;startSize=0;" vertex="1" parent="1">
          <mxGeometry x="-60" y="70" width="1640" height="300" as="geometry" />
        </mxCell>
        <mxCell id="H4Wsnc-VcdrFRMZcwrRY-38" value="&lt;font style=&quot;font-size: 24px;&quot;&gt;Pengguna&lt;/font&gt;" style="text;html=1;strokeColor=none;fillColor=none;align=center;verticalAlign=middle;whiteSpace=wrap;rounded=0;" vertex="1" parent="H4Wsnc-VcdrFRMZcwrRY-42">
          <mxGeometry x="50" y="130" width="60" height="30" as="geometry" />
        </mxCell>
        <mxCell id="H4Wsnc-VcdrFRMZcwrRY-39" value="&lt;font style=&quot;font-size: 24px;&quot;&gt;Aplikasi&lt;/font&gt;" style="text;html=1;strokeColor=none;fillColor=none;align=center;verticalAlign=middle;whiteSpace=wrap;rounded=0;" vertex="1" parent="H4Wsnc-VcdrFRMZcwrRY-42">
          <mxGeometry x="40" y="230" width="60" height="30" as="geometry" />
        </mxCell>
        <mxCell id="H4Wsnc-VcdrFRMZcwrRY-17" value="Selesai" style="ellipse;whiteSpace=wrap;html=1;" vertex="1" parent="H4Wsnc-VcdrFRMZcwrRY-42">
          <mxGeometry x="1504" y="30" width="120" height="80" as="geometry" />
        </mxCell>
        <mxCell id="H4Wsnc-VcdrFRMZcwrRY-16" value="Menampilkan konfirmasi pemesanan dan nomor pemesanan" style="rounded=1;whiteSpace=wrap;html=1;" vertex="1" parent="H4Wsnc-VcdrFRMZcwrRY-42">
          <mxGeometry x="1430" y="220" width="120" height="60" as="geometry" />
        </mxCell>
        <mxCell id="H4Wsnc-VcdrFRMZcwrRY-48" style="edgeStyle=orthogonalEdgeStyle;rounded=0;orthogonalLoop=1;jettySize=auto;html=1;exitX=0.426;exitY=0.012;exitDx=0;exitDy=0;entryX=0;entryY=0.5;entryDx=0;entryDy=0;exitPerimeter=0;" edge="1" parent="H4Wsnc-VcdrFRMZcwrRY-42" source="H4Wsnc-VcdrFRMZcwrRY-16" target="H4Wsnc-VcdrFRMZcwrRY-17">
          <mxGeometry relative="1" as="geometry" />
        </mxCell>
        <mxCell id="H4Wsnc-VcdrFRMZcwrRY-44" value="" style="endArrow=none;html=1;rounded=0;entryX=0.09;entryY=-0.005;entryDx=0;entryDy=0;entryPerimeter=0;exitX=0.091;exitY=1.007;exitDx=0;exitDy=0;exitPerimeter=0;" edge="1" parent="1" source="H4Wsnc-VcdrFRMZcwrRY-42" target="H4Wsnc-VcdrFRMZcwrRY-42">
          <mxGeometry width="50" height="50" relative="1" as="geometry">
            <mxPoint x="150" y="380" as="sourcePoint" />
            <mxPoint x="180" y="130" as="targetPoint" />
          </mxGeometry>
        </mxCell>
        <mxCell id="H4Wsnc-VcdrFRMZcwrRY-46" value="" style="endArrow=none;html=1;rounded=0;entryX=1.001;entryY=0.656;entryDx=0;entryDy=0;entryPerimeter=0;exitX=0;exitY=0.663;exitDx=0;exitDy=0;exitPerimeter=0;" edge="1" parent="1" source="H4Wsnc-VcdrFRMZcwrRY-42" target="H4Wsnc-VcdrFRMZcwrRY-42">
          <mxGeometry width="50" height="50" relative="1" as="geometry">
            <mxPoint x="-60" y="270" as="sourcePoint" />
            <mxPoint x="1560" y="270" as="targetPoint" />
          </mxGeometry>
        </mxCell>
      </root>
    </mxGraphModel>
  </diagram>
</mxfile>
